<?xml version="1.0" encoding="utf-8"?>
<svg xmlns="http://www.w3.org/2000/svg" version="1.1" xmlns:xlink="http://www.w3.org/1999/xlink" xmlns:svgjs="http://svgjs.com/svgjs" width="8072.4658" height="10469.377"><svg viewBox="-10308.946 -1219.921 8072.4658 10469.377" version="1.1" id="SvgjsSvg1014" sodipodi:docname="MatOLab-Logo-Square.svg" width="8072.4658" height="10469.377" inkscape:version="1.1.2 (b8e25be833, 2022-02-05)" xmlns:inkscape="http://www.inkscape.org/namespaces/inkscape" xmlns:sodipodi="http://sodipodi.sourceforge.net/DTD/sodipodi-0.dtd" xmlns:xlink="http://www.w3.org/1999/xlink" xmlns="http://www.w3.org/2000/svg" xmlns:svg="http://www.w3.org/2000/svg">
  <defs id="SvgjsDefs1013">
    <color-profile name="Agfa-:-Swop-Standard" xlink:href="../../../Windows/system32/spool/drivers/color/RSWOP.icm" id="SvgjsColor-profile1012"></color-profile>
  </defs>
  <sodipodi:namedview id="SvgjsSodipodi:namedview1011" pagecolor="#505050" bordercolor="#eeeeee" borderopacity="1" inkscape:pageshadow="0" inkscape:pageopacity="0" inkscape:pagecheckerboard="0" showgrid="false" fit-margin-top="0" fit-margin-left="0" fit-margin-right="0" fit-margin-bottom="0" inkscape:zoom="0.063672382" inkscape:cx="4036.2869" inkscape:cy="4161.9301" inkscape:window-width="1920" inkscape:window-height="1046" inkscape:window-x="-11" inkscape:window-y="-11" inkscape:window-maximized="1" inkscape:current-layer="svg23" inkscape:snap-text-baseline="false"></sodipodi:namedview>
  <g id="SvgjsG1010" transform="translate(-4140.8669,3567.73)" style="fill:#a6bbc8;fill-opacity:1;stroke:#005b7f;stroke-opacity:1">
    <path class="fil0" d="m -6022.5331,-4746.7275 c -42.33,21.17 -88.19,63.5 -105.83,95.25 -14.11,31.75 -31.75,740.83 -35.28,1573.39 -10.58,1206.5 -3.53,1531.06 35.28,1583.97 35.28,49.39 95.25,63.5 282.22,63.5 137.58,0 257.53,-17.64 289.28,-42.33 42.33,-35.28 52.92,-254 59.97,-1382.89 l 10.58,-1337.03 331.61,963.08 c 613.83,1778 603.25,1753.31 684.39,1778 42.33,14.11 172.86,21.17 289.28,21.17 162.28,-3.53 222.25,-17.64 264.58,-70.56 31.75,-35.28 268.11,-666.75 529.17,-1404.06 l 476.25,-1337.03 10.58,1375.83 c 3.53,754.94 21.17,1386.42 38.81,1404.06 38.81,38.81 416.28,45.86 525.64,10.58 l 77.61,-24.69 v -1566.33 c 0,-1841.5 28.22,-1718.03 -384.53,-1739.19 -342.19,-21.17 -560.92,17.64 -652.64,109.36 -42.33,45.86 -246.94,543.28 -479.78,1160.64 -222.25,599.72 -412.75,1086.56 -423.33,1086.56 -10.58,0 -190.5,-479.78 -402.17,-1068.92 -211.67,-585.61 -416.28,-1100.67 -455.08,-1146.53 -38.81,-42.33 -130.53,-91.72 -197.56,-112.89 -165.81,-45.86 -670.28,-42.33 -769.06,7.06 z" id="SvgjsPath1009" style="fill:#a6bbc8;fill-opacity:1;stroke:#005b7f;stroke-opacity:1;stroke-width:3.6;stroke-miterlimit:4;stroke-dasharray:none"></path>
    <path class="fil0" d="m 733.1669,-4517.4175 c -49.39,14.11 -63.5,67.03 -70.56,303.39 l -10.58,289.28 -158.75,10.58 c -183.44,14.11 -211.67,42.33 -211.67,246.94 0,232.83 45.86,289.28 229.31,289.28 h 158.75 v 694.97 c 0,384.53 17.64,758.47 35.28,829.03 49.39,169.33 194.03,342.19 342.19,402.17 137.58,59.97 564.44,63.5 705.56,10.58 130.53,-49.39 151.69,-88.19 151.69,-285.75 0,-254 -14.11,-271.64 -194.03,-229.31 -190.5,45.86 -321.03,-3.53 -370.42,-137.58 -21.17,-49.39 -35.28,-359.83 -35.28,-687.92 v -596.19 h 261.06 c 317.5,0 345.72,-24.69 331.61,-306.92 l -10.58,-204.61 -289.28,-10.58 -292.81,-10.58 v -278.69 c 0,-239.89 -10.58,-285.75 -67.03,-317.5 -67.03,-35.28 -384.53,-42.33 -504.47,-10.58 z" id="SvgjsPath1008" style="fill:#a6bbc8;fill-opacity:1;stroke:#005b7f;stroke-opacity:1"></path>
    <path class="fil0" d="m -1277.6731,-3924.7475 c -250.47,63.5 -472.72,172.86 -500.94,246.94 -38.81,109.36 -21.17,328.08 35.28,384.53 49.39,49.39 67.03,49.39 183.44,-10.58 331.61,-169.33 687.92,-218.72 906.64,-130.53 123.47,52.92 194.03,201.08 194.03,412.75 0,91.72 0,91.72 -359.83,112.89 -719.67,45.86 -1037.17,239.89 -1107.72,680.86 -74.08,465.67 282.22,839.61 797.28,839.61 278.69,0 444.5,-52.92 624.42,-197.56 l 134.06,-105.83 17.64,116.42 c 21.17,130.53 109.36,172.86 317.499998,151.69 229.310002,-24.69 218.720002,38.81 204.610002,-1008.94 -10.58,-797.28 -24.69,-984.25 -70.560002,-1086.56 -74.08,-158.75 -222.249998,-299.86 -395.109998,-370.42 -194.03,-81.14 -726.72,-102.31 -980.72,-35.28 z m 818.45,1615.72 c 0,158.75 -14.11,201.08 -95.25,282.22 -56.44,49.39 -158.75,116.42 -232.83,148.17 -275.17,112.89 -557.39,-74.08 -500.94,-335.14 42.33,-197.56 204.61,-275.17 575.03,-278.69 l 254,-3.53 v 186.97 z" id="SvgjsPath1007" style="fill:#a6bbc8;fill-opacity:1;stroke:#005b7f;stroke-opacity:1"></path>
  </g>
  <g id="SvgjsG1006" transform="translate(-4274.8068,3567.73)" style="fill:#a6bbc8;fill-opacity:1">
    <path class="fil0" d="m -854.59972,2345.197 c 0,0 -76.846,92.167 -90.956,113.327 -38.81,52.92 -35.28,3081.47 3.53,3137.91 28.22,49.39 426.86,67.03 497.42,24.69 17.64,-10.58 35.28,-84.67 35.28,-165.81 v -141.11 l 144.64,130.53 c 81.14,70.56 204.609999,155.22 275.169999,183.44 162.280001,70.56 546.810001,70.56 712.610001,3.53 423.33002,-179.92 659.69002,-698.5 620.89002,-1368.78 -21.17,-412.75 -119.94,-694.97 -317.5,-906.64 -296.33002,-321.03 -825.50002,-342.19 -1195.92002,-42.33 l -134.06,105.83 v -627.94 c 0,-345.72 -80.795,-385.904 -98.435,-410.594 -35.28,-56.44 -353.899,-78.383 -452.669,-36.053 z m 1323.684,1406.217 c 141.11,123.47 194.03,296.33 197.56,652.64 0,349.25 -88.19,578.56 -261.06,680.86 -190.5,112.89 -345.720001,74.08 -575.03,-144.64 l -134.06,-127 v -409.22 -409.22 l 134.06,-127 c 172.8599994,-165.81 246.939999,-201.08 402.17,-204.61 88.19,0 162.28,28.22 236.36,88.19 z" id="SvgjsPath1005" style="fill:#a6bbc8;fill-opacity:1"></path>
    <path class="fil0" d="m -5295.3057,2340.824 c -49.39,49.39 -52.92,225.78 -45.86,1626.31 10.58,1506.36 14.11,1569.86 77.61,1619.25 56.44,38.81 236.36,49.39 889,49.39 712.61,0 821.97,-7.06 839.61,-56.44 38.81,-98.78 21.17,-423.33 -21.17,-465.67 -28.22,-28.22 -204.61,-42.33 -564.44,-42.33 h -522.11 v -1358.19 c 0,-1559.28 31.75,-1428.75 -366.89,-1428.75 -162.28,0 -243.42,17.64 -285.75,56.44 z" id="SvgjsPath1004" style="fill:#a6bbc8;fill-opacity:1"></path>
    <path class="fil0" d="m -2684.7557,3116.944 c -366.89,91.72 -550.33,165.81 -613.83,246.94 -88.19,109.36 -95.25,285.75 -21.17,391.58 l 52.92,77.61 254,-109.36 c 313.97,-130.53 596.19,-162.28 779.64,-88.19 148.17,63.5 201.08,165.81 201.08,381 v 137.58 h -201.08 c -518.58,0 -952.5,144.64 -1125.36,373.94 -95.25,119.94 -102.31,155.22 -102.31,419.81 0,250.47 10.58,303.39 95.25,430.39 130.53,197.56 359.83,299.86 680.86,303.39 268.11,3.53 553.86,-95.25 677.33,-229.31 63.5,-70.56 63.5,-70.56 81.14,45.86 14.11,98.78 35.28,119.94 130.53,141.11 59.97,10.58 172.86,10.58 246.94,0 l 134.06,-21.17 v -987.78 c 0,-987.78 0,-987.78 -88.19,-1146.53 -130.53,-236.36 -391.58,-356.31 -804.33,-373.94 -169.33,-3.53 -338.67,-3.53 -377.47,7.06 z m 652.64,1661.58 c 0,190.5 -7.06,211.67 -127,303.39 -162.28,130.53 -313.97,172.86 -465.67,130.53 -148.17,-38.81 -215.19,-123.47 -218.72,-275.17 0,-257.53 151.69,-356.31 557.39,-359.83 h 254 z" id="SvgjsPath1003" style="fill:#a6bbc8;fill-opacity:1"></path>
  </g>
  <g id="SvgjsG1002" transform="translate(-4062.8524,3697.788)" style="stroke:#000000;stroke-opacity:1;fill:#a6bbc8;fill-opacity:1">
    <path class="fil0" d="m -2368.6156,-1198.3577 c -67.03,67.03 -70.56,116.42 -70.56,786.69002 0,652.64 7.06,723.19 63.5,776.11 88.19,77.61 264.58,74.08 335.14,-3.53 52.92,-56.44 59.97,-165.81 59.97,-776.11 0,-666.75002 -3.53,-716.14002 -70.56,-783.17002 -38.81,-38.81 -109.36,-70.56 -158.75,-70.56 -49.39,0 -119.94,31.75 -158.75,70.56 z" id="SvgjsPath1001" style="stroke:#000000;stroke-opacity:1;fill:#a6bbc8;fill-opacity:1"></path>
    <path class="fil0" d="m -3229.3856,-591.57768 c -776.11,779.64 -440.97,2102.55998 617.36,2430.63998 271.64,84.67 532.69,84.67 804.33,0 1058.32997,-328.08 1393.46997,-1650.99998 617.36,-2430.63998 -218.72,-218.72 -349.25,-243.42 -469.19,-91.72 -109.36,141.11 -91.72,204.61 116.42,433.92 197.56,215.189998 303.39,455.08 303.39,691.44 0,328.08 -239.89,712.60998 -543.28,874.88998 -112.89,59.97 -204.61,77.61 -426.86,77.61 -338.67,0 -500.94,-74.08 -719.67,-321.03 -349.25,-395.10998 -328.08,-910.16998 52.92,-1322.91998 208.14,-229.31 225.78,-292.81 116.42,-433.92 -119.94,-151.69 -250.47,-127 -469.19,91.72 z" id="SvgjsPath1000" style="stroke:#000000;stroke-opacity:1;fill:#a6bbc8;fill-opacity:1"></path>
  </g>
</svg><style>@media (prefers-color-scheme: light) { :root { filter: none; } }
</style></svg>