<?xml version="1.0" encoding="utf-8"?>
<svg viewBox="-10308.946 -1219.921 21098.834 3440.897" style="shape-rendering: geometricprecision;" xmlns="http://www.w3.org/2000/svg">
  <g id="_2884152844976" transform="matrix(1, 0, 0, 1, -10190.428038, -14460.841251)">
    <path class="fil0" d="M 18609.596 13323.313 C 18609.596 13323.313 18532.75 13415.48 18518.64 13436.64 C 18479.83 13489.56 18483.36 16518.11 18522.17 16574.55 C 18550.39 16623.94 18949.03 16641.58 19019.59 16599.24 C 19037.23 16588.66 19054.87 16514.57 19054.87 16433.43 L 19054.87 16292.32 L 19199.51 16422.85 C 19280.65 16493.41 19404.12 16578.07 19474.68 16606.29 C 19636.96 16676.85 20021.49 16676.85 20187.29 16609.82 C 20610.62 16429.9 20846.98 15911.32 20808.18 15241.04 C 20787.01 14828.29 20688.24 14546.07 20490.68 14334.4 C 20194.35 14013.37 19665.18 13992.21 19294.76 14292.07 L 19160.7 14397.9 L 19160.7 13769.96 C 19160.7 13424.24 19079.905 13384.056 19062.265 13359.366 C 19026.985 13302.926 18708.366 13280.983 18609.596 13323.313 Z M 19933.28 14729.53 C 20074.39 14853 20127.31 15025.86 20130.84 15382.17 C 20130.84 15731.42 20042.65 15960.73 19869.78 16063.03 C 19679.28 16175.92 19524.06 16137.11 19294.75 15918.39 L 19160.69 15791.39 L 19160.69 15382.17 L 19160.69 14972.95 L 19294.75 14845.95 C 19467.61 14680.14 19541.69 14644.87 19696.92 14641.34 C 19785.11 14641.34 19859.2 14669.56 19933.28 14729.53 Z"/>
    <path class="fil0" d="M50.72 13304.83c-42.33,21.17 -88.19,63.5 -105.83,95.25 -14.11,31.75 -31.75,740.83 -35.28,1573.39 -10.58,1206.5 -3.53,1531.06 35.28,1583.97 35.28,49.39 95.25,63.5 282.22,63.5 137.58,0 257.53,-17.64 289.28,-42.33 42.33,-35.28 52.92,-254 59.97,-1382.89l10.58 -1337.03 331.61 963.08c613.83,1778 603.25,1753.31 684.39,1778 42.33,14.11 172.86,21.17 289.28,21.17 162.28,-3.53 222.25,-17.64 264.58,-70.56 31.75,-35.28 268.11,-666.75 529.17,-1404.06l476.25 -1337.03 10.58 1375.83c3.53,754.94 21.17,1386.42 38.81,1404.06 38.81,38.81 416.28,45.86 525.64,10.58l77.61 -24.69 0 -1566.33c0,-1841.5 28.22,-1718.03 -384.53,-1739.19 -342.19,-21.17 -560.92,17.64 -652.64,109.36 -42.33,45.86 -246.94,543.28 -479.78,1160.64 -222.25,599.72 -412.75,1086.56 -423.33,1086.56 -10.58,0 -190.5,-479.78 -402.17,-1068.92 -211.67,-585.61 -416.28,-1100.67 -455.08,-1146.53 -38.81,-42.33 -130.53,-91.72 -197.56,-112.89 -165.81,-45.86 -670.28,-42.33 -769.06,7.06l0.01 0z"/>
    <path class="fil0" d="M14168.89 13318.94c-49.39,49.39 -52.92,225.78 -45.86,1626.31 10.58,1506.36 14.11,1569.86 77.61,1619.25 56.44,38.81 236.36,49.39 889,49.39 712.61,0 821.97,-7.06 839.61,-56.44 38.81,-98.78 21.17,-423.33 -21.17,-465.67 -28.22,-28.22 -204.61,-42.33 -564.44,-42.33l-522.11 0 0 -1358.19c0,-1559.28 31.75,-1428.75 -366.89,-1428.75 -162.28,0 -243.42,17.64 -285.75,56.44l0 -0.01z"/>
    <path class="fil0" d="M6806.42 13534.14c-49.39,14.11 -63.5,67.03 -70.56,303.39l-10.58 289.28 -158.75 10.58c-183.44,14.11 -211.67,42.33 -211.67,246.94 0,232.83 45.86,289.28 229.31,289.28l158.75 0 0 694.97c0,384.53 17.64,758.47 35.28,829.03 49.39,169.33 194.03,342.19 342.19,402.17 137.58,59.97 564.44,63.5 705.56,10.58 130.53,-49.39 151.69,-88.19 151.69,-285.75 0,-254 -14.11,-271.64 -194.03,-229.31 -190.5,45.86 -321.03,-3.53 -370.42,-137.58 -21.17,-49.39 -35.28,-359.83 -35.28,-687.92l0 -596.19 261.06 0c317.5,0 345.72,-24.69 331.61,-306.92l-10.58 -204.61 -289.28 -10.58 -292.81 -10.58 0 -278.69c0,-239.89 -10.58,-285.75 -67.03,-317.5 -67.03,-35.28 -384.53,-42.33 -504.47,-10.58l0.01 -0.01z"/>
    <path class="fil0" d="M 10764.58 13532.462 C 10697.55 13599.492 10694.02 13648.882 10694.02 14319.152 C 10694.02 14971.792 10701.08 15042.342 10757.52 15095.262 C 10845.71 15172.872 11022.1 15169.342 11092.66 15091.732 C 11145.58 15035.292 11152.63 14925.922 11152.63 14315.622 C 11152.63 13648.872 11149.1 13599.482 11082.07 13532.452 C 11043.26 13493.642 10972.71 13461.892 10923.32 13461.892 C 10873.93 13461.892 10803.38 13493.642 10764.57 13532.452 L 10764.58 13532.462 Z"/>
    <path class="fil0" d="M4795.58 14126.81c-250.47,63.5 -472.72,172.86 -500.94,246.94 -38.81,109.36 -21.17,328.08 35.28,384.53 49.39,49.39 67.03,49.39 183.44,-10.58 331.61,-169.33 687.92,-218.72 906.64,-130.53 123.47,52.92 194.03,201.08 194.03,412.75 0,91.72 0,91.72 -359.83,112.89 -719.67,45.86 -1037.17,239.89 -1107.72,680.86 -74.08,465.67 282.22,839.61 797.28,839.61 278.69,0 444.5,-52.92 624.42,-197.56l134.06 -105.83 17.64 116.42c21.17,130.53 109.36,172.86 317.5,151.69 229.31,-24.69 218.72,38.81 204.61,-1008.94 -10.58,-797.28 -24.69,-984.25 -70.56,-1086.56 -74.08,-158.75 -222.25,-299.86 -395.11,-370.42 -194.03,-81.14 -726.72,-102.31 -980.72,-35.28l-0.02 0.01zm818.45 1615.72c0,158.75 -14.11,201.08 -95.25,282.22 -56.44,49.39 -158.75,116.42 -232.83,148.17 -275.17,112.89 -557.39,-74.08 -500.94,-335.14 42.33,-197.56 204.61,-275.17 575.03,-278.69l254 -3.53 0 186.97 -0.01 0z"/>
    <path class="fil0" d="M16779.44 14095.06c-366.89,91.72 -550.33,165.81 -613.83,246.94 -88.19,109.36 -95.25,285.75 -21.17,391.58l52.92 77.61 254 -109.36c313.97,-130.53 596.19,-162.28 779.64,-88.19 148.17,63.5 201.08,165.81 201.08,381l0 137.58 -201.08 0c-518.58,0 -952.5,144.64 -1125.36,373.94 -95.25,119.94 -102.31,155.22 -102.31,419.81 0,250.47 10.58,303.39 95.25,430.39 130.53,197.56 359.83,299.86 680.86,303.39 268.11,3.53 553.86,-95.25 677.33,-229.31 63.5,-70.56 63.5,-70.56 81.14,45.86 14.11,98.78 35.28,119.94 130.53,141.11 59.97,10.58 172.86,10.58 246.94,0l134.06 -21.17 0 -987.78c0,-987.78 0,-987.78 -88.19,-1146.53 -130.53,-236.36 -391.58,-356.31 -804.33,-373.94 -169.33,-3.53 -338.67,-3.53 -377.47,7.06l-0.01 0.01zm652.64 1661.58c0,190.5 -7.06,211.67 -127,303.39 -162.28,130.53 -313.97,172.86 -465.67,130.53 -148.17,-38.81 -215.19,-123.47 -218.72,-275.17 0,-257.53 151.69,-356.31 557.39,-359.83l254 0 0 201.08z"/>
    <path class="fil0" d="M 9903.81 14139.242 C 9127.7 14918.882 9462.84 16241.802 10521.17 16569.882 C 10792.81 16654.552 11053.86 16654.552 11325.5 16569.882 C 12383.83 16241.802 12718.97 14918.882 11942.86 14139.242 C 11724.14 13920.522 11593.61 13895.822 11473.67 14047.522 C 11364.31 14188.632 11381.95 14252.132 11590.09 14481.442 C 11787.65 14696.632 11893.48 14936.522 11893.48 15172.882 C 11893.48 15500.962 11653.59 15885.492 11350.2 16047.772 C 11237.31 16107.742 11145.59 16125.382 10923.34 16125.382 C 10584.67 16125.382 10422.4 16051.302 10203.67 15804.352 C 9854.42 15409.242 9875.59 14894.182 10256.59 14481.432 C 10464.73 14252.122 10482.37 14188.622 10373.01 14047.512 C 10253.07 13895.822 10122.54 13920.512 9903.82 14139.232 L 9903.81 14139.242 Z"/>
    <path class="fil0" d="M8097.58 15100.47c-38.81,67.03 -24.69,381 21.17,437.44 35.28,42.33 148.17,52.92 596.19,52.92 303.39,0 571.5,-14.11 599.72,-31.75 63.5,-38.81 91.72,-328.08 42.33,-423.33 -38.81,-70.56 -63.5,-74.08 -638.53,-74.08 -391.58,0 -603.25,14.11 -620.89,38.81l0.01 -0.01z"/>
    <path class="fil0" d="M12549.64 15118.11c-35.28,95.25 -21.17,388.06 21.17,430.39 28.22,28.22 215.19,42.33 617.36,42.33 645.58,0 645.58,0 645.58,-278.69 0,-261.06 24.69,-250.47 -652.64,-250.47 -522.11,0 -613.83,7.06 -631.47,56.44z"/>
  </g>
</svg>